<svg xmlns="http://www.w3.org/2000/svg" xmlns:xlink="http://www.w3.org/1999/xlink" width="500" zoomAndPan="magnify" viewBox="0 0 375 374.999991" height="500" preserveAspectRatio="xMidYMid meet" version="1.0"><defs><g/></defs><path fill="#7931ff" d="M 185.664062 375 C 156.261719 375 128.960938 354.898438 108.789062 318.523438 C 89.363281 283.425781 78.636719 236.925781 78.636719 187.5 C 78.636719 183.601562 81.789062 180.375 85.761719 180.375 C 89.738281 180.375 92.886719 183.523438 92.886719 187.5 C 92.886719 234.523438 102.9375 278.550781 121.238281 311.625 C 138.789062 343.273438 161.664062 360.75 185.664062 360.75 C 202.3125 360.75 218.738281 352.125 233.210938 335.851562 C 235.835938 332.925781 240.335938 332.625 243.261719 335.25 C 246.1875 337.875 246.488281 342.375 243.863281 345.300781 C 226.613281 364.726562 206.511719 375 185.664062 375 Z M 185.664062 375 " fill-opacity="1" fill-rule="nonzero"/><path fill="#7931ff" d="M 268.238281 296.25 C 267.414062 296.25 266.511719 296.101562 265.6875 295.800781 C 262.011719 294.375 260.136719 290.324219 261.5625 286.648438 C 272.585938 257.476562 278.4375 223.199219 278.4375 187.574219 C 278.4375 140.550781 268.386719 96.523438 250.085938 63.449219 C 232.539062 31.726562 209.664062 14.25 185.664062 14.25 C 153.1875 14.25 122.585938 47.023438 105.710938 99.898438 C 104.511719 103.648438 100.539062 105.75 96.789062 104.550781 C 93.039062 103.351562 90.9375 99.375 92.136719 95.625 C 101.0625 67.574219 114.039062 43.949219 129.636719 27.300781 C 146.363281 9.449219 165.710938 0 185.664062 0 C 215.0625 0 242.363281 20.101562 262.539062 56.476562 C 281.960938 91.574219 292.6875 138.074219 292.6875 187.5 C 292.6875 224.851562 286.539062 260.851562 274.835938 291.601562 C 273.863281 294.449219 271.164062 296.25 268.238281 296.25 Z M 268.238281 296.25 " fill-opacity="1" fill-rule="nonzero"/><path fill="#7931ff" d="M 26.738281 164.25 C 23.738281 164.25 20.960938 162.375 19.988281 159.375 C 11.585938 134.550781 12.710938 111.824219 23.210938 93.675781 C 37.914062 68.175781 68.960938 54.601562 110.585938 55.351562 C 150.710938 56.023438 196.386719 70.050781 239.136719 94.726562 C 243.636719 97.351562 248.136719 100.050781 252.488281 102.824219 C 255.789062 104.925781 256.761719 109.351562 254.664062 112.648438 C 252.5625 115.949219 248.136719 116.925781 244.835938 114.824219 C 240.636719 112.125 236.363281 109.5 232.011719 107.023438 C 191.289062 83.550781 148.085938 70.199219 110.363281 69.523438 C 74.136719 68.925781 47.585938 79.949219 35.585938 100.726562 C 27.1875 115.273438 26.4375 133.949219 33.488281 154.726562 C 34.761719 158.476562 32.738281 162.449219 28.988281 163.726562 C 28.3125 164.175781 27.5625 164.25 26.738281 164.25 Z M 26.738281 164.25 " fill-opacity="1" fill-rule="nonzero"/><path fill="#7931ff" d="M 263.8125 319.648438 C 262.761719 319.648438 261.710938 319.648438 260.664062 319.648438 C 220.539062 318.976562 174.863281 304.949219 132.113281 280.273438 C 101.0625 262.351562 73.835938 240 53.289062 215.699219 C 50.738281 212.699219 51.113281 208.199219 54.113281 205.648438 C 57.113281 203.101562 61.613281 203.476562 64.164062 206.476562 C 83.664062 229.574219 109.613281 250.800781 139.238281 267.898438 C 179.960938 291.375 223.164062 304.726562 260.886719 305.398438 C 297.113281 306.074219 323.664062 294.976562 335.664062 274.199219 C 351.039062 247.5 340.460938 208.125 307.238281 168.75 C 304.6875 165.75 305.0625 161.25 308.0625 158.699219 C 311.0625 156.148438 315.5625 156.523438 318.113281 159.523438 C 355.3125 203.625 366.488281 249.148438 347.960938 281.25 C 333.710938 306.074219 303.863281 319.648438 263.8125 319.648438 Z M 263.8125 319.648438 " fill-opacity="1" fill-rule="nonzero"/><path fill="#7931ff" d="M 224.738281 287.25 C 222.1875 287.25 219.710938 285.898438 218.4375 283.425781 C 216.636719 279.976562 217.914062 275.625 221.4375 273.824219 C 225.039062 271.949219 228.636719 269.925781 232.164062 267.898438 C 272.886719 244.425781 305.960938 213.601562 325.460938 181.273438 C 344.136719 150.226562 347.8125 121.648438 335.8125 100.875 C 320.289062 74.023438 280.613281 63.601562 229.539062 72.898438 C 225.636719 73.574219 221.960938 71.023438 221.289062 67.199219 C 220.613281 63.300781 223.164062 59.625 226.988281 58.949219 C 284.136719 48.449219 329.4375 61.5 348.039062 93.75 C 362.738281 119.25 358.988281 152.925781 337.539062 188.625 C 316.835938 223.050781 281.960938 255.601562 239.136719 280.273438 C 235.460938 282.375 231.710938 284.476562 227.960938 286.425781 C 226.988281 286.949219 225.863281 287.25 224.738281 287.25 Z M 224.738281 287.25 " fill-opacity="1" fill-rule="nonzero"/><path fill="#7931ff" d="M 107.511719 319.648438 C 95.289062 319.648438 83.8125 318.375 73.386719 315.824219 C 50.289062 310.125 32.960938 298.199219 23.210938 281.324219 C 8.511719 255.824219 12.261719 222.148438 33.710938 186.449219 C 54.414062 152.023438 89.289062 119.476562 132.113281 94.800781 C 136.761719 92.101562 141.5625 89.476562 146.289062 87.074219 C 149.8125 85.273438 154.085938 86.625 155.886719 90.148438 C 157.6875 93.675781 156.335938 97.949219 152.8125 99.75 C 148.238281 102.074219 143.664062 104.550781 139.238281 107.175781 C 98.511719 130.648438 65.4375 161.476562 45.9375 193.800781 C 27.261719 224.851562 23.585938 253.425781 35.585938 274.199219 C 51.414062 301.574219 93.863281 312 146.289062 301.351562 C 150.113281 300.601562 153.863281 303.074219 154.6875 306.898438 C 155.4375 310.726562 152.960938 314.476562 149.136719 315.300781 C 134.664062 318.148438 120.636719 319.648438 107.511719 319.648438 Z M 107.511719 319.648438 " fill-opacity="1" fill-rule="nonzero"/><path fill="#7931ff" d="M 137.136719 237.148438 C 136.386719 237.148438 135.636719 237 134.886719 236.773438 C 131.136719 235.5 129.113281 231.523438 130.386719 227.773438 L 157.011719 148.050781 C 157.988281 145.125 160.6875 143.175781 163.761719 143.175781 C 166.835938 143.175781 169.539062 145.125 170.511719 148.050781 L 197.136719 227.773438 C 198.414062 231.523438 196.386719 235.5 192.636719 236.773438 C 188.886719 238.050781 184.914062 236.023438 183.636719 232.273438 L 163.761719 172.800781 L 143.886719 232.273438 C 142.835938 235.273438 140.0625 237.148438 137.136719 237.148438 Z M 137.136719 237.148438 " fill-opacity="1" fill-rule="nonzero"/><path fill="#7931ff" d="M 179.136719 220.800781 L 142.613281 220.800781 C 138.710938 220.800781 135.488281 217.648438 135.488281 213.675781 C 135.488281 209.773438 138.636719 206.550781 142.613281 206.550781 L 179.136719 206.550781 C 183.039062 206.550781 186.261719 209.699219 186.261719 213.675781 C 186.261719 217.648438 183.113281 220.800781 179.136719 220.800781 Z M 179.136719 220.800781 " fill-opacity="1" fill-rule="nonzero"/><path fill="#7931ff" d="M 234.1875 237.148438 C 230.289062 237.148438 227.0625 234 227.0625 230.023438 L 227.0625 144.976562 C 227.0625 141.074219 230.210938 137.851562 234.1875 137.851562 C 238.164062 137.851562 241.3125 141 241.3125 144.976562 L 241.3125 230.101562 C 241.3125 234 238.164062 237.148438 234.1875 237.148438 Z M 234.1875 237.148438 " fill-opacity="1" fill-rule="nonzero"/><g fill="#7931ff" fill-opacity="1"><g transform="translate(180.104333, 206.820368)"><g><path d="M 1.15625 -0.859375 C 1.15625 -1.253906 1.25 -1.53125 1.4375 -1.6875 C 1.632812 -1.851562 1.863281 -1.9375 2.125 -1.9375 C 2.394531 -1.9375 2.628906 -1.851562 2.828125 -1.6875 C 3.035156 -1.53125 3.140625 -1.253906 3.140625 -0.859375 C 3.140625 -0.472656 3.035156 -0.195312 2.828125 -0.03125 C 2.628906 0.132812 2.394531 0.21875 2.125 0.21875 C 1.863281 0.21875 1.632812 0.132812 1.4375 -0.03125 C 1.25 -0.195312 1.15625 -0.472656 1.15625 -0.859375 Z M 1.15625 -0.859375 "/></g></g></g></svg>